<svg version="1.1" id="Layer_1" xmlns="http://www.w3.org/2000/svg" xmlns:xlink="http://www.w3.org/1999/xlink" x="0px" y="0px"
	 width="100%" viewBox="0 0 1080 957" enable-background="new 0 0 1080 957" xml:space="preserve">
<path fill="none" opacity="1.000000" stroke="none"
	d="
M1081.000000,480.000031
	C1081.000000,639.300537 1081.000000,798.601013 1081.000000,957.950806
	C721.106934,957.950806 361.213898,957.950806 1.000000,957.950806
	C1.000000,798.973267 1.000000,639.946350 1.285846,480.158142
	C11.258153,496.042999 20.922796,512.701843 30.637224,529.331604
	C40.338192,545.938416 50.088993,562.516113 59.892956,579.461609
	C67.446999,592.854065 74.860802,605.929382 82.419952,618.920166
	C94.559059,639.781616 106.808662,660.578735 118.985130,681.418518
	C132.727615,704.938477 146.440842,728.475647 160.209290,752.348022
	C162.725098,756.761169 165.198410,760.831726 167.779297,765.104980
	C168.240128,765.572815 168.593399,765.837830 168.981171,766.463135
	C177.332382,781.250793 185.606216,795.703125 193.977234,810.098999
	C203.245407,826.037659 212.641449,841.901978 221.908630,857.841187
	C229.560608,871.002380 237.037064,884.265808 244.727295,897.404358
	C248.614380,904.045349 252.802719,910.510010 256.913513,917.420593
	C260.636810,924.242981 264.483612,930.604919 267.891907,937.193665
	C269.691772,940.673035 271.798126,942.107300 275.914001,942.099548
	C349.117096,941.961548 422.320465,942.002441 495.523804,941.995972
	C497.017334,941.995789 498.510864,941.890198 500.468262,941.902832
	C599.390076,941.983704 697.848816,941.811401 796.304688,942.267334
	C807.214661,942.317810 813.351318,939.886902 818.695801,929.537537
	C830.404663,906.864258 844.172607,885.257019 857.018555,863.167358
	C866.866577,846.232910 876.512695,829.180969 886.388367,812.262817
	C900.168823,788.655273 914.146973,765.163025 927.911682,741.546387
	C937.843628,724.505676 947.482300,707.294067 957.401550,690.245850
	C971.062683,666.766418 984.921570,643.402161 998.590027,619.927063
	C1010.892883,598.797241 1023.023865,577.567383 1035.284424,556.412720
	C1048.504028,533.603271 1061.752563,510.810303 1075.083496,488.065765
	C1076.760620,485.204254 1079.013794,482.680359 1081.000000,480.000031
z"/>
<path fill="none" opacity="1.000000" stroke="none"
	d="
M1.000011,476.000000
	C1.000000,317.699371 1.000000,159.398773 1.000000,1.049079
	C360.892883,1.049079 720.785828,1.049079 1081.000000,1.049079
	C1081.000000,159.026718 1081.000000,317.053650 1080.750732,475.878815
	C1079.833862,475.775146 1079.064331,474.931183 1078.514038,473.962708
	C1071.585571,461.767273 1064.798218,449.490265 1057.757568,437.360260
	C1047.822876,420.244049 1037.697510,403.238556 1027.671021,386.175568
	C1018.789307,371.060822 1009.931458,355.932129 1000.899475,340.508209
	C995.050171,330.554047 989.288879,320.944916 983.693909,311.239868
	C970.561523,288.460388 957.553223,265.609314 944.407104,242.837845
	C936.443726,229.043701 928.297852,215.355026 920.268677,201.598724
	C913.361694,189.765152 906.479126,177.917130 899.630798,166.049515
	C891.984131,152.798340 884.471558,139.469040 876.736023,126.270218
	C872.687317,119.362167 868.285889,112.660835 864.033081,105.503372
	C856.093933,91.315468 848.214417,77.462059 840.224304,63.672760
	C831.341736,48.343166 822.204895,33.157921 813.553284,17.700184
	C811.898010,14.742705 810.349182,13.923632 807.207642,13.932286
	C769.773499,14.035416 732.338989,13.986059 694.904541,14.011856
	C677.604797,14.023778 660.305115,14.112657 642.541260,14.094412
	C592.521545,14.015764 542.965881,13.998320 493.410278,14.010649
	C480.941528,14.013751 468.472748,14.112245 455.539856,14.095748
	C416.918182,14.017239 378.760681,14.008090 340.603149,14.003218
	C318.608337,14.000408 296.613403,14.033003 274.618805,13.967848
	C271.999481,13.960089 270.216370,14.211384 268.850342,17.077856
	C266.623199,21.751188 263.559509,26.021614 260.914337,30.500736
	C252.256058,45.161854 243.567398,59.805531 235.002029,74.520874
	C223.581375,94.141609 212.300873,113.843872 200.893631,133.472458
	C191.101318,150.322205 181.152832,167.081329 171.388168,183.946960
	C160.975540,201.931763 150.777466,220.040894 140.340988,238.011703
	C126.816338,261.300140 113.088531,284.470581 99.559158,307.756287
	C85.857445,331.338593 72.312836,355.012115 58.659210,378.622437
	C45.114239,402.044800 31.519165,425.438141 17.637615,449.032898
	C13.811578,455.664734 10.419146,462.180969 6.717373,468.516510
	C5.145771,471.206268 2.925498,473.517029 1.000011,476.000000
z"/>
<path fill="#DC8F61" opacity="1.000000" stroke="none"
	d="
M1001.063049,340.809631
	C1009.931458,355.932129 1018.789307,371.060822 1027.671021,386.175568
	C1037.697510,403.238556 1047.822876,420.244049 1057.757568,437.360260
	C1064.798218,449.490265 1071.585571,461.767273 1078.514038,473.962708
	C1079.064331,474.931183 1079.833862,475.775146 1080.750732,476.338501
	C1081.000000,477.066681 1081.000000,478.133331 1081.000000,479.600037
	C1079.013794,482.680359 1076.760620,485.204254 1075.083496,488.065765
	C1061.752563,510.810303 1048.504028,533.603271 1035.284424,556.412720
	C1023.023865,577.567383 1010.892883,598.797241 998.590027,619.927063
	C984.921570,643.402161 971.062683,666.766418 957.401550,690.245850
	C947.482300,707.294067 937.843628,724.505676 927.911682,741.546387
	C914.146973,765.163025 900.168823,788.655273 886.388367,812.262817
	C876.512695,829.180969 866.866577,846.232910 857.018555,863.167358
	C844.172607,885.257019 830.404663,906.864258 818.695801,929.537537
	C813.351318,939.886902 807.214661,942.317810 796.304688,942.267334
	C697.848816,941.811401 599.390076,941.983704 500.596985,941.601440
	C504.417816,938.533264 508.423279,935.561707 512.753967,933.181885
	C541.648315,917.304199 569.943420,900.439392 596.681824,881.127808
	C618.931458,865.058167 641.219971,848.991150 662.716980,831.946350
	C681.456787,817.087830 699.523499,801.309204 717.128418,785.111938
	C732.540466,770.932068 747.235840,755.925232 761.628662,740.698486
	C777.727112,723.667358 793.597534,706.373962 808.725525,688.482971
	C832.687805,660.144287 855.170288,630.597107 875.257324,599.371216
	C891.181946,574.615784 906.335999,549.356750 921.461731,524.099426
	C927.002075,514.848022 931.534058,504.987457 936.423523,495.352753
	C943.043213,482.308929 949.958191,469.394867 956.026917,456.096710
	C963.487183,439.749512 970.655823,423.237762 977.132935,406.481110
	C985.531494,384.753693 993.123718,362.714569 1001.063049,340.809631
z"/>
<path fill="#D67C46" opacity="1.000000" stroke="none"
	d="
M1.000011,476.400024
	C2.925498,473.517029 5.145771,471.206268 6.717373,468.516510
	C10.419146,462.180969 13.811578,455.664734 17.873096,449.341187
	C20.434034,449.949432 22.503437,451.011627 24.459467,450.832916
	C36.508904,449.732025 48.568123,448.616150 60.558746,447.015686
	C103.027260,441.347046 143.629440,429.136597 182.694260,411.658386
	C189.945938,408.413849 197.215988,405.210358 204.524597,402.455078
	C204.582672,423.921265 205.335709,444.956848 204.303009,465.904419
	C203.757065,476.978363 208.728500,483.786407 216.257523,489.996552
	C218.813049,492.104370 221.683411,493.860992 224.528549,495.581940
	C236.339432,502.726074 248.195633,509.795258 259.986023,517.251099
	C258.871552,518.780823 258.028992,520.415527 256.706512,521.050293
	C243.372314,527.450012 230.203247,534.285339 216.520523,539.849182
	C183.011780,553.475037 148.561646,564.304138 113.000435,571.100220
	C95.405540,574.462830 77.553589,576.480408 59.817947,579.106567
	C50.088993,562.516113 40.338192,545.938416 30.637224,529.331604
	C20.922796,512.701843 11.258153,496.042999 1.285846,479.698456
	C1.000000,478.933319 1.000000,477.866669 1.000011,476.400024
z"/>
<path fill="#DB8C5B" opacity="1.000000" stroke="none"
	d="
M1000.899475,340.508209
	C993.123718,362.714569 985.531494,384.753693 977.132935,406.481110
	C970.655823,423.237762 963.487183,439.749512 956.026917,456.096710
	C949.958191,469.394867 943.043213,482.308929 936.423523,495.352753
	C931.534058,504.987457 927.002075,514.848022 921.461731,524.099426
	C906.335999,549.356750 891.181946,574.615784 875.257324,599.371216
	C855.170288,630.597107 832.687805,660.144287 808.725525,688.482971
	C793.597534,706.373962 777.727112,723.667358 761.628662,740.698486
	C747.235840,755.925232 732.540466,770.932068 717.128418,785.111938
	C699.523499,801.309204 681.456787,817.087830 662.716980,831.946350
	C641.219971,848.991150 618.931458,865.058167 596.681824,881.127808
	C569.943420,900.439392 541.648315,917.304199 512.753967,933.181885
	C508.423279,935.561707 504.417816,938.533264 500.133118,941.532471
	C498.510864,941.890198 497.017334,941.995789 495.523804,941.995972
	C422.320465,942.002441 349.117096,941.961548 275.914001,942.099548
	C271.798126,942.107300 269.691772,940.673035 267.891907,937.193665
	C264.483612,930.604919 260.636810,924.242981 257.275696,917.272339
	C332.843262,895.565918 404.183899,865.228943 471.896393,825.829285
	C466.263733,818.497742 460.031677,817.847046 453.803345,823.555359
	C451.309052,825.841370 448.974457,826.687500 444.643158,824.625916
	C447.847656,822.644775 450.533844,821.423340 452.646332,819.553711
	C454.733765,817.706238 456.241364,815.203613 458.350830,813.045532
	C459.879395,813.714539 461.096924,814.265503 462.236023,814.947510
	C484.187683,828.087952 506.068268,841.349243 528.134888,854.293518
	C531.848083,856.471680 536.256348,857.804504 540.517639,858.643066
	C551.872070,860.877380 560.459534,853.971558 569.389648,848.861450
	C583.963867,840.521667 598.231445,831.648010 612.712158,823.142151
	C627.910767,814.214355 643.233093,805.497314 658.455200,796.609070
	C674.347351,787.329346 690.045288,777.707275 706.090515,768.702454
	C718.360596,761.816406 728.309570,753.706726 728.124268,737.741211
	C728.223083,735.978821 728.125793,734.492188 727.992310,732.537598
	C728.396667,708.712891 728.837097,685.356201 729.622192,661.964905
	C731.590210,660.885254 733.526245,660.123596 734.778442,658.742004
	C738.567871,654.561218 742.205261,650.229187 745.700684,645.797363
	C762.774475,624.149475 780.437683,602.925049 796.618347,580.626404
	C810.962036,560.859253 823.711853,539.928955 836.943176,519.369202
	C838.645386,516.724121 839.012756,513.219971 840.286011,509.909424
	C850.219421,504.008148 860.015564,498.547302 869.461243,492.535614
	C876.376038,488.134644 882.917847,482.739838 883.856506,473.928467
	C884.946106,463.699829 885.420410,453.366913 885.488464,443.074799
	C885.821167,392.763672 885.734253,342.449066 886.259949,292.140533
	C886.385071,280.168213 881.565796,271.697266 871.943237,265.541595
	C860.040955,257.927490 847.971741,250.574295 836.127686,242.781250
	C837.773682,238.591553 839.713013,234.837051 840.679382,230.846909
	C844.114563,216.663696 847.678040,202.485413 850.335754,188.146378
	C853.985413,168.455414 856.830200,148.615768 860.068481,128.847794
	C861.325256,121.176041 862.714783,113.526039 864.043823,105.866135
	C868.285889,112.660835 872.687317,119.362167 876.736023,126.270218
	C884.471558,139.469040 891.984131,152.798340 899.630798,166.049515
	C906.479126,177.917130 913.361694,189.765152 920.268677,201.598724
	C928.297852,215.355026 936.443726,229.043701 944.407104,242.837845
	C957.553223,265.609314 970.561523,288.460388 983.693909,311.239868
	C989.288879,320.944916 995.050171,330.554047 1000.899475,340.508209
z"/>
<path fill="#D7814C" opacity="1.000000" stroke="none"
	d="
M59.892952,579.461609
	C77.553589,576.480408 95.405540,574.462830 113.000435,571.100220
	C148.561646,564.304138 183.011780,553.475037 216.520523,539.849182
	C230.203247,534.285339 243.372314,527.450012 256.706512,521.050293
	C258.028992,520.415527 258.871552,518.780823 260.329834,517.331299
	C292.754547,536.079590 324.813324,555.061890 356.741150,574.262024
	C358.403015,575.261475 359.835052,578.099670 359.876709,580.112671
	C360.317200,601.417114 360.499786,622.727417 360.655762,644.036865
	C360.743469,656.019226 360.648773,668.002869 360.265503,679.997070
	C350.827637,684.082581 341.728149,688.086670 332.700867,692.247437
	C318.359070,698.857605 304.283173,706.098572 289.704956,712.130493
	C261.696136,723.719543 233.087662,733.723755 203.769119,741.510010
	C189.324661,745.346130 174.706375,748.527588 160.166763,752.005249
	C146.440842,728.475647 132.727615,704.938477 118.985130,681.418518
	C106.808662,660.578735 94.559059,639.781616 82.419952,618.920166
	C74.860802,605.929382 67.446999,592.854065 59.892952,579.461609
z"/>
<path fill="#D98856" opacity="1.000000" stroke="none"
	d="
M458.003357,812.988403
	C456.241364,815.203613 454.733765,817.706238 452.646332,819.553711
	C450.533844,821.423340 447.847656,822.644775 444.643158,824.625916
	C448.974457,826.687500 451.309052,825.841370 453.803345,823.555359
	C460.031677,817.847046 466.263733,818.497742 471.896393,825.829285
	C404.183899,865.228943 332.843262,895.565918 257.217010,916.906128
	C252.802719,910.510010 248.614380,904.045349 244.727295,897.404358
	C237.037064,884.265808 229.560608,871.002380 221.908630,857.841187
	C212.641449,841.901978 203.245407,826.037659 193.977234,810.098999
	C185.606216,795.703125 177.332382,781.250793 169.306351,766.248718
	C177.697906,763.844971 185.947479,762.504944 193.872025,760.095764
	C218.507828,752.606262 243.213181,745.266785 267.530151,736.827759
	C295.661957,727.064636 322.883209,715.004333 349.325684,701.232361
	C352.940521,699.349731 357.032928,698.383972 361.010620,697.452393
	C361.498444,711.898560 362.230652,725.888245 362.147217,739.873047
	C362.083527,750.545349 365.760345,758.198547 375.387115,763.536194
	C389.486206,771.353638 403.164978,779.931396 416.993317,788.234436
	C430.682404,796.453979 444.334839,804.734619 458.003357,812.988403
z"/>
<path fill="#D98856" opacity="1.000000" stroke="none"
	d="
M160.209274,752.347961
	C174.706375,748.527588 189.324661,745.346130 203.769119,741.510010
	C233.087662,733.723755 261.696136,723.719543 289.704956,712.130493
	C304.283173,706.098572 318.359070,698.857605 332.700867,692.247437
	C341.728149,688.086670 350.827637,684.082581 360.352051,680.436096
	C360.781372,683.247192 360.753357,685.630371 360.374023,688.030518
	C356.643738,690.008972 353.325836,692.086731 349.869476,693.900696
	C346.073090,695.893127 342.105103,697.556885 338.290649,699.517090
	C332.013855,702.742615 325.808746,706.107361 319.545959,709.360535
	C319.003265,709.642456 318.217346,709.416565 317.610901,709.622437
	C314.957550,710.523132 312.287384,711.397461 309.705963,712.478699
	C308.079865,713.159851 306.677002,714.384888 305.041687,715.031494
	C293.484802,719.600769 281.898041,724.094727 270.311432,728.588623
	C264.814758,730.720581 259.352875,732.962219 253.775177,734.860107
	C247.384933,737.034485 240.844971,738.766785 234.442551,740.907959
	C229.152893,742.677002 224.009338,744.881592 218.724960,746.668091
	C214.578903,748.069702 210.116470,750.558716 206.152267,750.004822
	C200.070587,749.155090 195.315186,752.155640 189.986237,753.253052
	C183.299850,754.629944 176.829010,757.053589 170.265152,759.025513
	C170.051880,758.603943 169.838623,758.182434 169.625351,757.760864
	C168.974152,760.141296 168.322952,762.521790 167.671722,764.902222
	C165.198410,760.831726 162.725098,756.761169 160.209274,752.347961
z"/>
<path fill="#D7814C" opacity="1.000000" stroke="none"
	d="
M167.779297,765.104980
	C168.322952,762.521790 168.974152,760.141296 169.625351,757.760864
	C169.838623,758.182434 170.051880,758.603943 170.265152,759.025513
	C176.829010,757.053589 183.299850,754.629944 189.986237,753.253052
	C195.315186,752.155640 200.070587,749.155090 206.152267,750.004822
	C210.116470,750.558716 214.578903,748.069702 218.724960,746.668091
	C224.009338,744.881592 229.152893,742.677002 234.442551,740.907959
	C240.844971,738.766785 247.384933,737.034485 253.775177,734.860107
	C259.352875,732.962219 264.814758,730.720581 270.311432,728.588623
	C281.898041,724.094727 293.484802,719.600769 305.041687,715.031494
	C306.677002,714.384888 308.079865,713.159851 309.705963,712.478699
	C312.287384,711.397461 314.957550,710.523132 317.610901,709.622437
	C318.217346,709.416565 319.003265,709.642456 319.545959,709.360535
	C325.808746,706.107361 332.013855,702.742615 338.290649,699.517090
	C342.105103,697.556885 346.073090,695.893127 349.869476,693.900696
	C353.325836,692.086731 356.643738,690.008972 360.456970,688.473267
	C360.895599,691.597229 360.899902,694.295471 360.904205,696.993713
	C357.032928,698.383972 352.940521,699.349731 349.325684,701.232361
	C322.883209,715.004333 295.661957,727.064636 267.530151,736.827759
	C243.213181,745.266785 218.507828,752.606262 193.872025,760.095764
	C185.947479,762.504944 177.697906,763.844971 169.271851,765.888428
	C168.593399,765.837830 168.240128,765.572815 167.779297,765.104980
z"/>
<path fill="#D57840" opacity="1.000000" stroke="none"
	d="
M204.477554,401.987915
	C197.215988,405.210358 189.945938,408.413849 182.694260,411.658386
	C143.629440,429.136597 103.027260,441.347046 60.558746,447.015686
	C48.568123,448.616150 36.508904,449.732025 24.459467,450.832916
	C22.503437,451.011627 20.434034,449.949432 18.181555,449.152527
	C31.519165,425.438141 45.114239,402.044800 58.659210,378.622437
	C72.312836,355.012115 85.857445,331.338593 99.559158,307.756287
	C113.088531,284.470581 126.816338,261.300140 140.340988,238.011703
	C150.777466,220.040894 160.975540,201.931763 171.388168,183.946960
	C181.152832,167.081329 191.101318,150.322205 200.893631,133.472458
	C212.300873,113.843872 223.581375,94.141609 235.002029,74.520874
	C243.567398,59.805531 252.256058,45.161854 260.914337,30.500736
	C263.559509,26.021614 266.623199,21.751188 268.850342,17.077856
	C270.216370,14.211384 271.999481,13.960089 274.618805,13.967848
	C296.613403,14.033003 318.608337,14.000408 340.603149,14.003218
	C378.760681,14.008090 416.918182,14.017239 455.539001,14.553722
	C455.686249,23.369249 455.290802,31.653528 455.069122,39.942451
	C454.436707,63.591217 450.861084,86.853760 445.916260,109.930023
	C440.581085,134.827621 433.299988,159.143219 423.410400,182.661621
	C421.721344,181.693451 420.368256,180.825516 418.981354,179.594788
	C416.799286,174.102936 414.401794,172.930206 409.386841,174.630127
	C404.663177,172.476898 400.460907,169.858490 395.884125,168.542404
	C391.875153,167.389587 387.137634,166.573502 383.274902,167.630127
	C377.649963,169.168762 372.327148,172.187134 367.215149,175.158890
	C347.715424,186.494629 328.316895,198.005997 308.946747,209.562729
	C287.741821,222.214142 266.513824,234.831879 245.485153,247.771851
	C234.162079,254.739456 223.065964,262.110901 212.200241,269.772125
	C206.684998,273.660828 204.382736,279.244598 204.442154,286.541992
	C204.755524,325.021484 204.521591,363.505493 204.477554,401.987915
z"/>
<path fill="#D67D47" opacity="1.000000" stroke="none"
	d="
M423.746399,182.761871
	C433.299988,159.143219 440.581085,134.827621 445.916260,109.930023
	C450.861084,86.853760 454.436707,63.591217 455.069122,39.942451
	C455.290802,31.653528 455.686249,23.369249 456.003174,14.624876
	C468.472748,14.112245 480.941528,14.013751 493.410278,14.010649
	C542.965881,13.998320 592.521545,14.015764 642.540161,14.552444
	C642.347656,30.832634 642.142212,46.617805 640.912109,62.322720
	C639.643616,78.517296 638.124817,94.761185 635.396362,110.758484
	C629.266541,146.697723 623.356934,182.766541 607.952271,216.642288
	C605.834656,217.945526 603.929443,219.005554 601.774902,219.897949
	C600.945190,220.359741 600.364807,220.989151 599.732422,221.713226
	C599.680420,221.807907 599.464539,221.798645 599.097778,221.663467
	C597.544922,222.435471 596.358704,223.342651 595.157532,224.209808
	C595.142578,224.169769 595.222961,224.198761 594.807983,224.157440
	C591.987305,223.921555 590.087280,224.383041 589.915161,227.620682
	C577.092407,235.306427 564.349121,242.517288 551.983887,250.326782
	C546.714050,253.655014 542.371765,253.490280 537.240723,250.417191
	C511.568573,235.041382 485.779022,219.861679 460.057892,204.567429
	C447.922699,197.351624 435.848328,190.033569 423.746399,182.761871
z"/>
<path fill="#D88451" opacity="1.000000" stroke="none"
	d="
M608.164734,216.399078
	C623.356934,182.766541 629.266541,146.697723 635.396362,110.758484
	C638.124817,94.761185 639.643616,78.517296 640.912109,62.322720
	C642.142212,46.617805 642.347656,30.832634 643.004272,14.624676
	C660.305115,14.112657 677.604797,14.023778 694.904541,14.011856
	C732.338989,13.986059 769.773499,14.035416 807.207642,13.932286
	C810.349182,13.923632 811.898010,14.742705 813.553284,17.700184
	C822.204895,33.157921 831.341736,48.343166 840.224304,63.672760
	C848.214417,77.462059 856.093933,91.315468 864.033020,105.503357
	C862.714783,113.526039 861.325256,121.176041 860.068481,128.847794
	C856.830200,148.615768 853.985413,168.455414 850.335754,188.146378
	C847.678040,202.485413 844.114563,216.663696 840.679382,230.846909
	C839.713013,234.837051 837.773682,238.591553 835.785522,242.697647
	C795.275879,219.381653 755.225769,195.882385 715.271790,172.220825
	C705.115967,166.206375 695.050354,166.110611 684.991211,171.797653
	C670.649780,179.905762 656.479736,188.317017 642.235718,196.597351
	C630.879333,203.199005 619.521729,209.798569 608.164734,216.399078
z"/>
<path fill="#FEFCFB" opacity="1.000000" stroke="none"
	d="
M607.952271,216.642273
	C619.521729,209.798569 630.879333,203.199005 642.235718,196.597351
	C656.479736,188.317017 670.649780,179.905762 684.991211,171.797653
	C695.050354,166.110611 705.115967,166.206375 715.271790,172.220825
	C755.225769,195.882385 795.275879,219.381653 835.632446,243.024765
	C847.971741,250.574295 860.040955,257.927490 871.943237,265.541595
	C881.565796,271.697266 886.385071,280.168213 886.259949,292.140533
	C885.734253,342.449066 885.821167,392.763672 885.488464,443.074799
	C885.420410,453.366913 884.946106,463.699829 883.856506,473.928467
	C882.917847,482.739838 876.376038,488.134644 869.461243,492.535614
	C860.015564,498.547302 850.219421,504.008148 839.952820,509.970825
	C834.189636,513.407532 829.047180,516.578491 823.606934,519.900452
	C821.835693,520.960205 820.362244,521.868958 818.627747,522.909973
	C817.911743,523.401978 817.456787,523.761719 816.658203,524.131104
	C813.829285,525.667236 811.343994,527.193665 808.549194,528.889282
	C806.212585,530.143616 804.139709,531.152039 802.165344,532.325989
	C779.620300,545.731384 757.155579,559.274170 734.490906,572.473816
	C730.776367,574.637085 729.210144,577.198364 729.213074,581.165283
	C729.233032,608.109985 729.255676,635.054749 729.277527,661.999451
	C728.837097,685.356201 728.396667,708.712891 727.862183,732.831299
	C727.821472,735.067566 727.874817,736.542236 727.928101,738.016846
	C728.309570,753.706726 718.360596,761.816406 706.090515,768.702454
	C690.045288,777.707275 674.347351,787.329346 658.455200,796.609070
	C643.233093,805.497314 627.910767,814.214355 612.712158,823.142151
	C598.231445,831.648010 583.963867,840.521667 569.389648,848.861450
	C560.459534,853.971558 551.872070,860.877380 540.517639,858.643066
	C536.256348,857.804504 531.848083,856.471680 528.134888,854.293518
	C506.068268,841.349243 484.187683,828.087952 462.236023,814.947510
	C461.096924,814.265503 459.879395,813.714539 458.350861,813.045532
	C444.334839,804.734619 430.682404,796.453979 416.993317,788.234436
	C403.164978,779.931396 389.486206,771.353638 375.387115,763.536194
	C365.760345,758.198547 362.083527,750.545349 362.147217,739.873047
	C362.230652,725.888245 361.498444,711.898560 361.010620,697.452393
	C360.899902,694.295471 360.895599,691.597229 360.808319,688.456299
	C360.753357,685.630371 360.781372,683.247192 360.722839,680.424927
	C360.648773,668.002869 360.743469,656.019226 360.655762,644.036865
	C360.499786,622.727417 360.317200,601.417114 359.876709,580.112671
	C359.835052,578.099670 358.403015,575.261475 356.741150,574.262024
	C324.813324,555.061890 292.754547,536.079590 260.378998,516.972168
	C248.195633,509.795258 236.339432,502.726074 224.528549,495.581940
	C221.683411,493.860992 218.813049,492.104370 216.257523,489.996552
	C208.728500,483.786407 203.757065,476.978363 204.303009,465.904419
	C205.335709,444.956848 204.582672,423.921265 204.524597,402.455078
	C204.521591,363.505493 204.755524,325.021484 204.442154,286.541992
	C204.382736,279.244598 206.684998,273.660828 212.200241,269.772125
	C223.065964,262.110901 234.162079,254.739456 245.485153,247.771851
	C266.513824,234.831879 287.741821,222.214142 308.946747,209.562729
	C328.316895,198.005997 347.715424,186.494629 367.215149,175.158890
	C372.327148,172.187134 377.649963,169.168762 383.274902,167.630127
	C387.137634,166.573502 391.875153,167.389587 395.884125,168.542404
	C400.460907,169.858490 404.663177,172.476898 409.606964,174.859100
	C413.128876,176.778427 416.072052,178.368011 419.015198,179.957596
	C420.368256,180.825516 421.721344,181.693451 423.410400,182.661621
	C435.848328,190.033569 447.922699,197.351624 460.057892,204.567429
	C485.779022,219.861679 511.568573,235.041382 537.240723,250.417191
	C542.371765,253.490280 546.714050,253.655014 551.983887,250.326782
	C564.349121,242.517288 577.092407,235.306427 590.245544,227.536636
	C592.279907,226.212921 593.751465,225.205841 595.222961,224.198761
	C595.222961,224.198761 595.142578,224.169769 595.472290,224.154312
	C597.022888,223.358780 598.243713,222.578705 599.464539,221.798645
	C599.464539,221.798645 599.680420,221.807907 599.989014,221.609802
	C600.873108,220.962982 601.448669,220.514267 602.024231,220.065567
	C603.929443,219.005554 605.834656,217.945526 607.952271,216.642273
M756.946289,215.806305
	C754.293518,214.278381 751.640808,212.750458 748.453918,210.759827
	C735.237122,202.925583 722.238159,194.678757 708.667297,187.515289
	C704.733276,185.438736 698.194275,184.547821 694.506165,186.404419
	C678.592957,194.415176 663.294922,203.647964 647.135498,212.760513
	C643.677673,214.942719 640.219910,217.124939 636.042969,219.419998
	C633.928589,220.909470 631.814209,222.398956 629.011841,223.964371
	C616.089355,231.418777 603.115662,238.786087 590.258423,246.351303
	C576.541382,254.422379 562.921021,262.658112 549.289307,270.873230
	C546.068420,272.814301 543.327637,273.348724 539.708252,271.026550
	C531.354248,265.666687 522.612976,260.910339 513.642517,255.342072
	C496.115784,245.137909 478.597382,234.919373 461.055054,224.742126
	C457.667816,222.777008 454.118317,221.087753 450.761597,219.074585
	C439.582275,212.369873 428.456573,205.575684 416.865448,198.303696
	C414.910065,197.216064 412.954651,196.128448 410.471954,194.582657
	C407.709625,193.195923 404.947296,191.809189 401.696747,189.969437
	C394.098969,184.822495 386.261108,183.432526 377.955963,188.344070
	C375.821747,189.606232 373.515442,190.578674 371.389069,191.852539
	C347.807617,205.979294 324.287598,220.209045 300.666992,234.269836
	C278.458282,247.490173 256.303833,260.815308 233.808060,273.532806
	C224.782379,278.635315 220.860168,284.829620 221.030975,295.630493
	C221.662842,335.587555 221.269058,375.560547 221.309875,415.527466
	C221.318192,423.676056 221.539459,431.824463 221.420959,440.807220
	C221.574570,443.547882 221.728165,446.288544 221.708908,449.683167
	C221.783096,450.123108 221.857269,450.563080 221.731766,451.922424
	C221.828491,456.416443 222.434052,460.972046 221.899261,465.389618
	C221.150620,471.573853 223.798950,475.571198 228.672974,478.541382
	C236.319885,483.201385 244.049683,487.725220 251.735641,492.321381
	C264.699585,500.073730 277.635864,507.872681 290.623230,515.585571
	C301.154480,521.839905 311.743774,527.996643 322.789581,534.755371
	C323.861969,535.258545 324.934387,535.761658 326.394836,536.785950
	C328.586517,538.000183 330.778168,539.214478 333.521271,540.926697
	C346.266083,548.614319 358.904480,556.487793 371.817261,563.882019
	C375.959930,566.254211 377.610962,568.879028 377.561615,573.691956
	C377.389984,590.443420 377.685638,607.199707 377.554413,624.779846
	C377.638428,626.202087 377.722443,627.624268 377.577942,629.942871
	C377.654205,634.278503 377.730469,638.614197 377.554840,643.862732
	C377.625946,674.948547 377.609344,706.035278 377.905609,737.118958
	C377.934845,740.183228 378.966949,744.417297 381.106812,746.063843
	C387.880829,751.276062 395.401611,755.517822 402.984558,760.737061
	C404.990234,761.807434 406.995911,762.877869 409.505798,764.402588
	C410.248596,764.863220 410.991425,765.323853 412.188660,766.182373
	C413.418549,766.901062 414.648468,767.619751 416.254578,768.785950
	C417.294312,769.298889 418.334045,769.811768 419.879364,770.823547
	C421.956329,772.200378 423.979767,773.667297 426.119141,774.939148
	C438.387573,782.232605 450.621765,789.587097 462.988800,796.710327
	C473.895020,802.992188 484.960083,808.998291 496.300262,815.708191
	C508.971771,823.281311 521.616394,830.900024 534.325806,838.409058
	C541.061523,842.388855 547.761169,843.265198 554.847656,838.668701
	C564.730408,832.258423 574.834106,826.179199 584.961975,820.157959
	C604.920898,808.292053 624.954895,796.552307 644.970581,784.782104
	C657.552307,777.383362 670.197632,770.091980 682.737122,762.622559
	C691.006775,757.696411 699.176453,752.598206 707.293274,747.423950
	C708.547302,746.624634 709.938110,745.096680 710.131897,743.743286
	C710.908325,738.321838 711.542786,732.843750 711.674683,727.373230
	C712.035522,712.393005 712.163269,697.406433 712.297241,682.421631
	C712.626282,645.632324 712.907043,608.842590 713.502991,571.356689
	C713.207031,566.679138 715.239014,563.570862 719.653992,561.905945
	C720.855835,561.452759 721.880371,560.529480 723.647095,559.660217
	C743.182922,548.004883 762.698364,536.315369 782.259399,524.702576
	C808.782349,508.956848 835.346191,493.279999 861.875244,477.544556
	C865.139282,475.608582 867.214355,473.246002 867.232605,468.831970
	C867.374817,434.536682 867.854614,400.243011 868.103455,365.947906
	C868.192810,353.631592 867.934692,341.312775 867.970459,328.066925
	C867.633789,316.378265 867.297119,304.689606 867.104675,292.207062
	C867.044800,291.137543 866.984924,290.068024 867.067627,288.154053
	C867.681030,283.581940 866.296875,280.357391 861.961670,277.896851
	C849.514832,270.832520 837.307556,263.346436 824.999939,256.036560
	C814.428040,249.757553 803.871948,243.451477 793.264038,237.233673
	C782.971130,231.200439 772.621277,225.264389 761.971130,218.727478
	C760.428894,217.920334 758.886658,217.113190 756.946289,215.806305
z"/>
<path fill="#DA8A5A" opacity="1.000000" stroke="none"
	d="
M823.904663,519.749390
	C829.047180,516.578491 834.189636,513.407532 839.665283,510.175140
	C839.012756,513.219971 838.645386,516.724121 836.943176,519.369202
	C823.711853,539.928955 810.962036,560.859253 796.618347,580.626404
	C780.437683,602.925049 762.774475,624.149475 745.700684,645.797363
	C742.205261,650.229187 738.567871,654.561218 734.778442,658.742004
	C733.526245,660.123596 731.590210,660.885254 729.622192,661.964905
	C729.255676,635.054749 729.233032,608.109985 729.213074,581.165283
	C729.210144,577.198364 730.776367,574.637085 734.490906,572.473816
	C757.155579,559.274170 779.620300,545.731384 802.165344,532.325989
	C804.139709,531.152039 806.212585,530.143616 808.815735,529.103516
	C813.439026,529.759705 816.192383,528.411865 817.001831,524.121460
	C817.456787,523.761719 817.911743,523.401978 818.910461,523.127075
	C822.908020,524.590271 823.775574,522.644470 823.904663,519.749390
z"/>
<path fill="#E2A47E" opacity="1.000000" stroke="none"
	d="
M728.124268,737.741211
	C727.874817,736.542236 727.821472,735.067566 727.898315,733.299194
	C728.125793,734.492188 728.223083,735.978821 728.124268,737.741211
z"/>
<path fill="#D67D47" opacity="1.000000" stroke="none"
	d="
M418.981354,179.594788
	C416.072052,178.368011 413.128876,176.778427 409.965637,174.959869
	C414.401794,172.930206 416.799286,174.102936 418.981354,179.594788
z"/>
<path fill="#D88451" opacity="1.000000" stroke="none"
	d="
M594.807983,224.157455
	C593.751465,225.205841 592.279907,226.212921 590.478027,227.304047
	C590.087280,224.383041 591.987305,223.921555 594.807983,224.157455
z"/>
<path fill="#D88451" opacity="1.000000" stroke="none"
	d="
M599.097778,221.663467
	C598.243713,222.578705 597.022888,223.358780 595.487305,224.194336
	C596.358704,223.342651 597.544922,222.435471 599.097778,221.663467
z"/>
<path fill="#D88451" opacity="1.000000" stroke="none"
	d="
M601.774902,219.897949
	C601.448669,220.514267 600.873108,220.962982 600.041016,221.515121
	C600.364807,220.989151 600.945190,220.359741 601.774902,219.897949
z"/>
<path fill="#D7824D" opacity="1.000000" stroke="none"
	d="
M377.806763,642.949829
	C377.730469,638.614197 377.654205,634.278503 377.978333,629.401794
	C380.715271,626.928833 380.629303,625.280945 377.803619,623.954163
	C377.685638,607.199707 377.389984,590.443420 377.561615,573.691956
	C377.610962,568.879028 375.959930,566.254211 371.817261,563.882019
	C358.904480,556.487793 346.266083,548.614319 333.732910,540.603271
	C341.670135,540.449219 346.652954,534.990906 352.201752,530.980774
	C354.108673,529.602600 354.764648,526.493591 356.327393,524.222412
	C365.231873,529.298035 374.034027,533.978271 382.279572,539.490967
	C386.928284,542.598938 391.022003,542.325989 395.272217,539.889038
	C407.065247,533.127319 418.766663,526.203369 430.441711,519.238586
	C449.953125,507.598999 469.428284,495.898529 488.894592,484.183685
	C500.957458,476.924316 513.029236,469.677002 524.987366,462.247803
	C529.618042,459.370911 531.705627,455.360504 531.621826,449.389038
	C531.264587,423.929016 531.499268,398.460724 531.866028,373.090942
	C532.808533,374.771454 533.862976,376.341278 533.915894,377.944122
	C534.118713,384.093475 533.950928,390.254150 534.033997,396.409058
	C534.056946,398.103851 534.471008,399.793396 534.866943,402.648071
	C536.666931,400.958893 537.736633,400.242798 538.425049,399.259674
	C541.570374,394.767548 544.391785,390.031891 547.750732,385.711121
	C550.702332,381.914368 554.212830,378.552155 557.544434,375.462280
	C557.692017,401.388336 557.896484,426.850983 557.736145,452.311310
	C557.707275,456.891052 558.971924,459.963959 563.064758,462.225464
	C564.082703,463.019104 565.038147,463.519165 566.331787,464.100586
	C569.441406,465.871124 572.212830,467.560242 574.983521,469.644653
	C573.814819,473.019714 573.087524,476.285309 571.381104,478.915710
	C568.429504,483.465424 564.870667,487.621155 561.235962,491.776306
	C556.247620,489.080383 551.562561,486.598938 546.941772,484.002899
	C543.926453,482.308807 541.398010,483.037994 538.592590,484.759094
	C517.251099,497.851715 495.881256,510.899628 474.429596,523.810730
	C453.438965,536.444336 432.437256,549.065918 411.236053,561.339722
	C404.258453,565.379272 402.082825,571.441345 402.065826,578.615784
	C402.023712,596.408142 402.321838,614.201294 402.146912,632.031128
	C398.374329,634.043701 394.936951,636.017273 391.502258,637.995605
	C387.229553,640.456543 383.327454,643.939636 377.806763,642.949829
z"/>
<path fill="#DB8B5B" opacity="1.000000" stroke="none"
	d="
M713.207214,572.053040
	C712.907043,608.842590 712.626282,645.632324 712.297241,682.421631
	C712.163269,697.406433 712.035522,712.393005 711.674683,727.373230
	C711.542786,732.843750 710.908325,738.321838 710.131897,743.743286
	C709.938110,745.096680 708.547302,746.624634 707.293274,747.423950
	C699.176453,752.598206 691.006775,757.696411 682.737122,762.622559
	C670.197632,770.091980 657.552307,777.383362 644.970581,784.782104
	C624.954895,796.552307 604.920898,808.292053 584.961975,820.157959
	C574.834106,826.179199 564.730408,832.258423 554.847656,838.668701
	C547.761169,843.265198 541.061523,842.388855 534.325806,838.409058
	C521.616394,830.900024 508.971771,823.281311 496.249451,815.092529
	C500.529785,811.597595 504.871216,808.733704 509.188599,805.834045
	C512.280334,803.757507 515.980835,802.173523 516.486572,797.690918
	C524.451782,802.146484 532.098816,806.460083 539.659485,810.920227
	C542.510498,812.602173 545.009644,812.751404 547.994324,811.033264
	C563.533508,802.088501 579.259766,793.466492 594.746216,784.432800
	C623.562622,767.623596 652.226379,750.552673 681.046143,733.749390
	C684.525146,731.720825 685.796265,729.368408 685.797119,725.391174
	C685.804932,687.415771 685.986267,649.440430 686.132141,611.465027
	C686.146851,607.639465 686.256226,603.814270 686.660400,599.950439
	C688.693542,598.698730 690.733582,597.772949 692.023010,596.222839
	C697.690613,589.409302 703.081238,582.365662 708.719971,575.527222
	C709.893738,574.103760 711.695068,573.197632 713.207214,572.053040
z"/>
<path fill="#D57A42" opacity="1.000000" stroke="none"
	d="
M221.662567,439.972931
	C221.539459,431.824463 221.318192,423.676056 221.309875,415.527466
	C221.269058,375.560547 221.662842,335.587555 221.030975,295.630493
	C220.860168,284.829620 224.782379,278.635315 233.808060,273.532806
	C256.303833,260.815308 278.458282,247.490173 300.666992,234.269836
	C324.287598,220.209045 347.807617,205.979294 371.389069,191.852539
	C373.515442,190.578674 375.821747,189.606232 377.955963,188.344070
	C386.261108,183.432526 394.098969,184.822495 401.931854,190.598053
	C403.766266,196.066711 407.299530,197.592514 410.999268,195.040833
	C412.954651,196.128448 414.910065,197.216064 416.848969,198.848145
	C414.716736,204.220337 412.476562,208.998474 410.525665,213.891937
	C409.035370,217.630020 406.668671,219.960663 402.245300,220.178101
	C400.930359,219.511597 399.912109,218.896759 398.840179,217.926926
	C396.980682,215.468018 396.723572,210.151154 391.550201,214.192978
	C389.228210,214.251755 386.903046,213.731354 385.384094,214.607925
	C366.854492,225.301132 348.400696,236.127853 330.011597,247.061844
	C303.619781,262.754211 277.323975,278.608185 250.914215,294.270111
	C247.368469,296.372864 245.980743,298.833527 246.018600,303.063812
	C246.227295,326.385010 246.136780,349.709229 246.085922,373.032257
	C246.050323,389.352295 245.913956,405.672119 245.487854,422.102417
	C241.047745,424.740387 241.808334,428.682343 242.400162,432.397003
	C244.326050,444.485260 234.138016,453.803558 221.931442,451.003021
	C221.857269,450.563080 221.783096,450.123108 222.126450,449.190155
	C224.635818,445.548035 225.103409,442.563049 221.662567,439.972931
z"/>
<path fill="#D7814C" opacity="1.000000" stroke="none"
	d="
M557.476501,374.998047
	C554.212830,378.552155 550.702332,381.914368 547.750732,385.711121
	C544.391785,390.031891 541.570374,394.767548 538.425049,399.259674
	C537.736633,400.242798 536.666931,400.958893 534.866943,402.648071
	C534.471008,399.793396 534.056946,398.103851 534.033997,396.409058
	C533.950928,390.254150 534.118713,384.093475 533.915894,377.944122
	C533.862976,376.341278 532.808533,374.771454 531.848389,372.623413
	C531.295227,349.443115 531.074524,326.826111 530.945618,304.208557
	C530.916016,299.022491 529.393372,295.160553 524.432922,292.458160
	C517.055664,288.439056 510.062317,283.715363 502.994446,278.935791
	C506.731812,271.023071 510.380310,263.466125 514.028809,255.909195
	C522.612976,260.910339 531.354248,265.666687 539.708252,271.026550
	C543.327637,273.348724 546.068420,272.814301 549.289307,270.873230
	C562.921021,262.658112 576.541382,254.422379 590.258423,246.351303
	C603.115662,238.786087 616.089355,231.418777 629.769226,223.940521
	C633.639221,223.779083 636.528137,223.338867 636.762085,219.307159
	C640.219910,217.124939 643.677673,214.942719 647.612671,212.989105
	C647.885376,216.109726 648.236572,219.180313 647.375183,221.861252
	C644.479553,230.872650 641.151978,239.745255 637.720032,248.893463
	C636.416992,249.648926 635.383606,250.181885 634.105835,250.453140
	C630.440491,248.340897 630.399780,250.959732 629.733337,253.307983
	C627.734497,254.587723 626.006165,255.668350 624.029175,256.466064
	C618.879761,253.746490 618.339233,257.834869 616.719482,260.942993
	C597.718018,272.481598 578.994690,283.802521 560.257996,295.101044
	C557.946167,296.495087 556.283569,297.658081 556.366821,301.152740
	C556.952881,325.762695 557.153015,350.381836 557.476501,374.998047
z"/>
<path fill="#DB8B5B" opacity="1.000000" stroke="none"
	d="
M867.835205,328.995087
	C867.934692,341.312775 868.192810,353.631592 868.103455,365.947906
	C867.854614,400.243011 867.374817,434.536682 867.232605,468.831970
	C867.214355,473.246002 865.139282,475.608582 861.875244,477.544556
	C835.346191,493.279999 808.782349,508.956848 782.259399,524.702576
	C762.698364,536.315369 743.182922,548.004883 723.327026,559.374573
	C723.524292,557.726135 723.777954,556.174011 724.599609,555.029846
	C732.727600,543.711426 741.078613,532.550171 749.023560,521.106445
	C750.412720,519.105530 750.207153,515.997437 750.910278,513.125366
	C764.500244,504.903687 777.902771,496.931335 791.340027,489.018097
	C806.204590,480.264343 820.837708,471.059387 836.117981,463.099731
	C841.920532,460.077087 843.344543,456.968506 843.170654,450.933289
	C842.537598,428.962036 842.475708,406.974304 842.536621,384.937927
	C843.818787,383.823090 845.157104,382.919037 845.647217,381.679565
	C851.927429,365.795776 858.040344,349.845825 864.338196,333.969147
	C865.064941,332.137054 866.648804,330.644897 867.835205,328.995087
z"/>
<path fill="#D98654" opacity="1.000000" stroke="none"
	d="
M750.738098,513.400696
	C750.207153,515.997437 750.412720,519.105530 749.023560,521.106445
	C741.078613,532.550171 732.727600,543.711426 724.599609,555.029846
	C723.777954,556.174011 723.524292,557.726135 722.996704,559.455444
	C721.880371,560.529480 720.855835,561.452759 719.653992,561.905945
	C715.239014,563.570862 713.207031,566.679138 713.355103,571.704834
	C711.695068,573.197632 709.893738,574.103760 708.719971,575.527222
	C703.081238,582.365662 697.690613,589.409302 692.023010,596.222839
	C690.733582,597.772949 688.693542,598.698730 686.580688,599.488403
	C686.008545,589.582642 686.109436,580.084412 685.517578,570.629578
	C685.373962,568.335205 683.468506,565.367126 681.484802,564.102539
	C670.793152,557.287048 659.834045,550.890076 648.943787,544.387756
	C632.300537,534.450500 615.616028,524.582153 598.991211,514.614197
	C586.482056,507.114014 574.039062,499.503571 561.566589,491.942139
	C564.870667,487.621155 568.429504,483.465424 571.381104,478.915710
	C573.087524,476.285309 573.814819,473.019714 575.292725,469.768494
	C616.434204,494.008789 657.265808,518.520569 698.201233,543.094727
	C705.858398,538.882385 713.261169,534.908508 720.568604,530.766235
	C730.662781,525.044189 740.685059,519.195251 750.738098,513.400696
z"/>
<path fill="#D98755" opacity="1.000000" stroke="none"
	d="
M867.902832,328.531006
	C866.648804,330.644897 865.064941,332.137054 864.338196,333.969147
	C858.040344,349.845825 851.927429,365.795776 845.647217,381.679565
	C845.157104,382.919037 843.818787,383.823090 842.459229,384.493866
	C842.071716,381.404388 842.099731,378.704041 842.402466,375.866516
	C842.488098,374.485168 842.299011,373.240997 842.038940,371.533081
	C842.010620,363.713776 842.053162,356.358185 842.402344,348.829102
	C844.570923,346.244843 844.815186,343.983856 842.020203,341.533813
	C841.779968,327.572418 841.545227,314.074890 841.496094,300.576691
	C841.485229,297.579437 840.596863,295.691895 837.841614,294.209198
	C833.035461,291.622711 828.500122,288.538147 823.799744,285.749146
	C808.809143,276.854248 793.755371,268.065094 778.801880,259.108521
	C766.422363,251.693680 754.150208,244.099533 741.942017,236.256088
	C743.263489,235.712982 744.784058,234.932480 745.623596,235.393158
	C747.908936,236.647141 750.011536,238.304550 751.993835,240.024292
	C755.232727,242.834259 757.478027,242.634613 758.513428,238.583603
	C760.133911,232.242828 761.070251,225.727219 762.296387,219.285660
	C772.621277,225.264389 782.971130,231.200439 793.264038,237.233673
	C803.871948,243.451477 814.428040,249.757553 824.999939,256.036560
	C837.307556,263.346436 849.514832,270.832520 861.961670,277.896851
	C866.296875,280.357391 867.681030,283.581940 866.716003,288.711243
	C866.563049,290.512604 866.761719,291.756775 866.960449,293.000946
	C867.297119,304.689606 867.633789,316.378265 867.902832,328.531006
z"/>
<path fill="#D77F4A" opacity="1.000000" stroke="none"
	d="
M221.831604,451.462708
	C234.138016,453.803558 244.326050,444.485260 242.400162,432.397003
	C241.808334,428.682343 241.047745,424.740387 245.588043,422.562317
	C246.043289,433.556824 245.950851,444.204376 246.193756,454.844299
	C246.234726,456.639465 247.229980,459.203705 248.617264,460.054626
	C262.128632,468.341949 275.834442,476.311493 289.451630,484.427368
	C311.644867,497.654694 333.813232,510.923798 355.992126,524.175293
	C354.764648,526.493591 354.108673,529.602600 352.201752,530.980774
	C346.652954,534.990906 341.670135,540.449219 333.457214,540.354248
	C330.778168,539.214478 328.586517,538.000183 326.045654,536.173462
	C324.566772,535.106201 323.437042,534.651428 322.307312,534.196655
	C311.743774,527.996643 301.154480,521.839905 290.623230,515.585571
	C277.635864,507.872681 264.699585,500.073730 251.735641,492.321381
	C244.049683,487.725220 236.319885,483.201385 228.672974,478.541382
	C223.798950,475.571198 221.150620,471.573853 221.899261,465.389618
	C222.434052,460.972046 221.828491,456.416443 221.831604,451.462708
z"/>
<path fill="#D98654" opacity="1.000000" stroke="none"
	d="
M377.680786,643.406250
	C383.327454,643.939636 387.229553,640.456543 391.502258,637.995605
	C394.936951,636.017273 398.374329,634.043701 402.237488,632.492188
	C402.718903,637.398315 402.772644,641.880432 402.827972,646.362488
	C403.157837,673.087585 403.538605,699.812195 403.754883,726.538208
	C403.782196,729.910950 404.762543,731.895813 407.875061,733.543762
	C414.425629,737.012207 420.694244,741.013062 427.067383,745.200195
	C427.101593,752.641296 431.944275,750.025513 435.708069,749.826782
	C435.837433,749.812805 435.999725,750.016296 436.067352,750.245972
	C436.743744,750.689880 437.352539,750.904053 438.256287,751.175171
	C439.370728,751.779114 440.190277,752.326172 441.075165,753.230652
	C442.337921,756.623047 441.194611,758.430603 438.376099,759.898621
	C431.969971,763.235657 425.699463,766.833069 419.373810,770.324646
	C418.334045,769.811768 417.294312,769.298889 416.019806,768.210999
	C415.032104,765.711975 414.453094,763.407471 411.734222,765.784485
	C410.991425,765.323853 410.248596,764.863220 409.231689,763.785095
	C408.434967,758.850830 405.139038,760.317078 402.633606,760.134888
	C395.401611,755.517822 387.880829,751.276062 381.106812,746.063843
	C378.966949,744.417297 377.934845,740.183228 377.905609,737.118958
	C377.609344,706.035278 377.625946,674.948547 377.680786,643.406250
z"/>
<path fill="#D8834F" opacity="1.000000" stroke="none"
	d="
M762.133789,219.006561
	C761.070251,225.727219 760.133911,232.242828 758.513428,238.583603
	C757.478027,242.634613 755.232727,242.834259 751.993835,240.024292
	C750.011536,238.304550 747.908936,236.647141 745.623596,235.393158
	C744.784058,234.932480 743.263489,235.712982 741.588623,236.152542
	C730.485352,230.281219 719.753296,224.340912 709.242859,218.031372
	C702.588928,214.036972 697.723999,212.113373 689.628784,217.864777
	C673.341431,229.436432 655.304626,238.545670 637.989685,248.670944
	C641.151978,239.745255 644.479553,230.872650 647.375183,221.861252
	C648.236572,219.180313 647.885376,216.109726 647.931396,212.826813
	C663.294922,203.647964 678.592957,194.415176 694.506165,186.404419
	C698.194275,184.547821 704.733276,185.438736 708.667297,187.515289
	C722.238159,194.678757 735.237122,202.925583 748.724304,211.378418
	C749.826721,217.754318 752.460571,219.113586 757.344421,216.306061
	C758.886658,217.113190 760.428894,217.920334 762.133789,219.006561
z"/>
<path fill="#D67C46" opacity="1.000000" stroke="none"
	d="
M513.835693,255.625641
	C510.380310,263.466125 506.731812,271.023071 502.642548,278.847656
	C499.136749,277.362427 496.071686,275.609589 492.943390,273.502289
	C491.497833,272.467010 490.115540,271.786163 488.401550,271.032898
	C484.973297,269.044739 481.907684,267.076752 478.774933,265.222198
	C464.341125,256.677429 449.888885,248.163849 435.442749,239.639954
	C424.476227,233.169205 413.508911,226.699768 402.541962,220.229767
	C406.668671,219.960663 409.035370,217.630020 410.525665,213.891937
	C412.476562,208.998474 414.716736,204.220337 417.071411,199.104187
	C428.456573,205.575684 439.582275,212.369873 450.761597,219.074585
	C454.118317,221.087753 457.667816,222.777008 461.055054,224.742126
	C478.597382,234.919373 496.115784,245.137909 513.835693,255.625641
z"/>
<path fill="#DA8957" opacity="1.000000" stroke="none"
	d="
M419.626587,770.574097
	C425.699463,766.833069 431.969971,763.235657 438.376099,759.898621
	C441.194611,758.430603 442.337921,756.623047 441.423340,753.301880
	C466.515442,767.879639 491.324738,782.743530 516.134033,797.607361
	C515.980835,802.173523 512.280334,803.757507 509.188599,805.834045
	C504.871216,808.733704 500.529785,811.597595 496.076843,814.801514
	C484.960083,808.998291 473.895020,802.992188 462.988800,796.710327
	C450.621765,789.587097 438.387573,782.232605 426.119141,774.939148
	C423.979767,773.667297 421.956329,772.200378 419.626587,770.574097
z"/>
<path fill="#D98755" opacity="1.000000" stroke="none"
	d="
M757.145386,216.056183
	C752.460571,219.113586 749.826721,217.754318 748.991333,211.609787
	C751.640808,212.750458 754.293518,214.278381 757.145386,216.056183
z"/>
<path fill="#D67C46" opacity="1.000000" stroke="none"
	d="
M410.735596,194.811737
	C407.299530,197.592514 403.766266,196.066711 402.175964,190.824585
	C404.947296,191.809189 407.709625,193.195923 410.735596,194.811737
z"/>
<path fill="#D77F4A" opacity="1.000000" stroke="none"
	d="
M221.541763,440.390076
	C225.103409,442.563049 224.635818,445.548035 222.212891,448.863159
	C221.728165,446.288544 221.574570,443.547882 221.541763,440.390076
z"/>
<path fill="#DB8C5B" opacity="1.000000" stroke="none"
	d="
M816.658203,524.131104
	C816.192383,528.411865 813.439026,529.759705 809.125244,528.934448
	C811.343994,527.193665 813.829285,525.667236 816.658203,524.131104
z"/>
<path fill="#DA8957" opacity="1.000000" stroke="none"
	d="
M402.809082,760.435974
	C405.139038,760.317078 408.434967,758.850830 408.979614,763.557922
	C406.995911,762.877869 404.990234,761.807434 402.809082,760.435974
z"/>
<path fill="#D8834F" opacity="1.000000" stroke="none"
	d="
M636.402527,219.363571
	C636.528137,223.338867 633.639221,223.779083 630.113281,223.902557
	C631.814209,222.398956 633.928589,220.909470 636.402527,219.363571
z"/>
<path fill="#D98654" opacity="1.000000" stroke="none"
	d="
M377.679016,624.367004
	C380.629303,625.280945 380.715271,626.928833 378.092590,628.953613
	C377.722443,627.624268 377.638428,626.202087 377.679016,624.367004
z"/>
<path fill="#DB8C5B" opacity="1.000000" stroke="none"
	d="
M823.606934,519.900391
	C823.775574,522.644470 822.908020,524.590271 819.171448,522.994751
	C820.362244,521.868958 821.835693,520.960205 823.606934,519.900391
z"/>
<path fill="#DA8957" opacity="1.000000" stroke="none"
	d="
M411.961426,765.983398
	C414.453094,763.407471 415.032104,765.711975 415.831726,767.987183
	C414.648468,767.619751 413.418549,766.901062 411.961426,765.983398
z"/>
<path fill="#DB8B5B" opacity="1.000000" stroke="none"
	d="
M867.032593,292.604004
	C866.761719,291.756775 866.563049,290.512604 866.644714,289.133484
	C866.984924,290.068024 867.044800,291.137543 867.032593,292.604004
z"/>
<path fill="#D7824D" opacity="1.000000" stroke="none"
	d="
M322.548462,534.476013
	C323.437042,534.651428 324.566772,535.106201 325.851654,535.912903
	C324.934387,535.761658 323.861969,535.258545 322.548462,534.476013
z"/>
<path fill="#FFFFFF" opacity="1.000000" stroke="none"
	d="
M402.245300,220.178101
	C413.508911,226.699768 424.476227,233.169205 435.442749,239.639954
	C449.888885,248.163849 464.341125,256.677429 478.774933,265.222198
	C481.907684,267.076752 484.973297,269.044739 488.577515,271.307983
	C490.392334,272.389252 491.699493,273.122986 493.006622,273.856750
	C496.071686,275.609589 499.136749,277.362427 502.553680,279.203400
	C510.062317,283.715363 517.055664,288.439056 524.432922,292.458160
	C529.393372,295.160553 530.916016,299.022491 530.945618,304.208557
	C531.074524,326.826111 531.295227,349.443115 531.500366,372.527893
	C531.499268,398.460724 531.264587,423.929016 531.621826,449.389038
	C531.705627,455.360504 529.618042,459.370911 524.987366,462.247803
	C513.029236,469.677002 500.957458,476.924316 488.894592,484.183685
	C469.428284,495.898529 449.953125,507.598999 430.441711,519.238586
	C418.766663,526.203369 407.065247,533.127319 395.272217,539.889038
	C391.022003,542.325989 386.928284,542.598938 382.279572,539.490967
	C374.034027,533.978271 365.231873,529.298035 356.327362,524.222412
	C333.813232,510.923798 311.644867,497.654694 289.451630,484.427368
	C275.834442,476.311493 262.128632,468.341949 248.617264,460.054626
	C247.229980,459.203705 246.234726,456.639465 246.193756,454.844299
	C245.950851,444.204376 246.043289,433.556824 245.922791,422.451935
	C245.913956,405.672119 246.050323,389.352295 246.085922,373.032257
	C246.136780,349.709229 246.227295,326.385010 246.018600,303.063812
	C245.980743,298.833527 247.368469,296.372864 250.914215,294.270111
	C277.323975,278.608185 303.619781,262.754211 330.011597,247.061844
	C348.400696,236.127853 366.854492,225.301132 385.384094,214.607925
	C386.903046,213.731354 389.228210,214.251755 391.760223,214.452805
	C394.525757,215.949020 396.709778,217.115479 398.893829,218.281921
	C399.912109,218.896759 400.930359,219.511597 402.245300,220.178101
z"/>
<path fill="#FFFFFF" opacity="1.000000" stroke="none"
	d="
M637.720032,248.893433
	C655.304626,238.545670 673.341431,229.436432 689.628784,217.864777
	C697.723999,212.113373 702.588928,214.036972 709.242859,218.031372
	C719.753296,224.340912 730.485352,230.281219 741.477051,236.481308
	C754.150208,244.099533 766.422363,251.693680 778.801880,259.108521
	C793.755371,268.065094 808.809143,276.854248 823.799744,285.749146
	C828.500122,288.538147 833.035461,291.622711 837.841614,294.209198
	C840.596863,295.691895 841.485229,297.579437 841.496094,300.576691
	C841.545227,314.074890 841.779968,327.572418 841.941406,341.966461
	C841.988586,344.909363 842.042114,346.955994 842.095703,349.002625
	C842.053162,356.358185 842.010620,363.713776 841.963562,371.929840
	C842.015259,373.861481 842.071533,374.932587 842.127808,376.003723
	C842.099731,378.704041 842.071716,381.404388 842.121094,384.548767
	C842.475708,406.974304 842.537598,428.962036 843.170654,450.933289
	C843.344543,456.968506 841.920532,460.077087 836.117981,463.099731
	C820.837708,471.059387 806.204590,480.264343 791.340027,489.018097
	C777.902771,496.931335 764.500244,504.903687 750.910278,513.125366
	C740.685059,519.195251 730.662781,525.044189 720.568604,530.766235
	C713.261169,534.908508 705.858398,538.882385 698.201233,543.094727
	C657.265808,518.520569 616.434204,494.008789 575.293396,469.373169
	C572.212830,467.560242 569.441406,465.871124 566.199707,463.812225
	C564.820312,462.938934 563.911255,462.435425 563.002197,461.931915
	C558.971924,459.963959 557.707275,456.891052 557.736145,452.311310
	C557.896484,426.850983 557.692017,401.388336 557.544434,375.462280
	C557.153015,350.381836 556.952881,325.762695 556.366821,301.152740
	C556.283569,297.658081 557.946167,296.495087 560.257996,295.101044
	C578.994690,283.802521 597.718018,272.481598 617.051270,260.944641
	C619.864014,259.397491 622.070923,258.073212 624.277832,256.748962
	C626.006165,255.668350 627.734497,254.587723 630.057129,253.297043
	C631.884399,252.296280 633.117310,251.505585 634.350220,250.714874
	C635.383606,250.181885 636.416992,249.648926 637.720032,248.893433
z"/>
<path fill="#FFFFFF" opacity="1.000000" stroke="none"
	d="
M516.486572,797.690918
	C491.324738,782.743530 466.515442,767.879639 441.357971,752.944580
	C440.190277,752.326172 439.370728,751.779114 438.065399,750.953491
	C437.052948,750.455444 436.526337,750.235901 435.999725,750.016296
	C435.999725,750.016296 435.837433,749.812805 435.461395,749.558472
	C432.416443,747.801208 429.747498,746.298279 427.078552,744.795410
	C420.694244,741.013062 414.425629,737.012207 407.875061,733.543762
	C404.762543,731.895813 403.782196,729.910950 403.754883,726.538208
	C403.538605,699.812195 403.157837,673.087585 402.827972,646.362488
	C402.772644,641.880432 402.718903,637.398315 402.573853,632.455200
	C402.321838,614.201294 402.023712,596.408142 402.065826,578.615784
	C402.082825,571.441345 404.258453,565.379272 411.236053,561.339722
	C432.437256,549.065918 453.438965,536.444336 474.429596,523.810730
	C495.881256,510.899628 517.251099,497.851715 538.592590,484.759094
	C541.398010,483.037994 543.926453,482.308807 546.941772,484.002899
	C551.562561,486.598938 556.247620,489.080383 561.235962,491.776306
	C574.039062,499.503571 586.482056,507.114014 598.991211,514.614197
	C615.616028,524.582153 632.300537,534.450500 648.943787,544.387756
	C659.834045,550.890076 670.793152,557.287048 681.484802,564.102539
	C683.468506,565.367126 685.373962,568.335205 685.517578,570.629578
	C686.109436,580.084412 686.008545,589.582642 686.242065,599.526855
	C686.256226,603.814270 686.146851,607.639465 686.132141,611.465027
	C685.986267,649.440430 685.804932,687.415771 685.797119,725.391174
	C685.796265,729.368408 684.525146,731.720825 681.046143,733.749390
	C652.226379,750.552673 623.562622,767.623596 594.746216,784.432800
	C579.259766,793.466492 563.533508,802.088501 547.994324,811.033264
	C545.009644,812.751404 542.510498,812.602173 539.659485,810.920227
	C532.098816,806.460083 524.451782,802.146484 516.486572,797.690918
z"/>
<path fill="#D98654" opacity="1.000000" stroke="none"
	d="
M563.064758,462.225464
	C563.911255,462.435425 564.820312,462.938934 565.861450,463.730835
	C565.038147,463.519165 564.082703,463.019104 563.064758,462.225464
z"/>
<path fill="#D67C46" opacity="1.000000" stroke="none"
	d="
M398.840179,217.926926
	C396.709778,217.115479 394.525757,215.949020 392.131683,214.522736
	C396.723572,210.151154 396.980682,215.468018 398.840179,217.926926
z"/>
<path fill="#D8834F" opacity="1.000000" stroke="none"
	d="
M624.029175,256.466064
	C622.070923,258.073212 619.864014,259.397491 617.325439,260.720093
	C618.339233,257.834869 618.879761,253.746490 624.029175,256.466064
z"/>
<path fill="#D8834F" opacity="1.000000" stroke="none"
	d="
M634.105835,250.453156
	C633.117310,251.505585 631.884399,252.296280 630.327637,253.097931
	C630.399780,250.959732 630.440491,248.340897 634.105835,250.453156
z"/>
<path fill="#DB8B5B" opacity="1.000000" stroke="none"
	d="
M842.402344,348.829102
	C842.042114,346.955994 841.988586,344.909363 842.013794,342.430115
	C844.815186,343.983856 844.570923,346.244843 842.402344,348.829102
z"/>
<path fill="#DB8B5B" opacity="1.000000" stroke="none"
	d="
M842.402527,375.866516
	C842.071533,374.932587 842.015259,373.861481 842.034424,372.393585
	C842.299011,373.240997 842.488098,374.485168 842.402527,375.866516
z"/>
<path fill="#DA8957" opacity="1.000000" stroke="none"
	d="
M427.067352,745.200195
	C429.747498,746.298279 432.416443,747.801208 435.332031,749.572510
	C431.944275,750.025513 427.101593,752.641296 427.067352,745.200195
z"/>
<path fill="#DA8957" opacity="1.000000" stroke="none"
	d="
M436.067352,750.245972
	C436.526337,750.235901 437.052948,750.455444 437.770447,750.896606
	C437.352539,750.904053 436.743744,750.689880 436.067352,750.245972
z"/>
<path fill="#D7814C" opacity="1.000000" stroke="none"
	d="
M492.943390,273.502289
	C491.699493,273.122986 490.392334,272.389252 488.909210,271.380432
	C490.115540,271.786163 491.497833,272.467010 492.943390,273.502289
z"/>
</svg>
